<?xml version="1.0" standalone="no"?>
<!DOCTYPE svg PUBLIC "-//W3C//DTD SVG 20010904//EN"
 "http://www.w3.org/TR/2001/REC-SVG-20010904/DTD/svg10.dtd">
<svg version="1.0" xmlns="http://www.w3.org/2000/svg"
 width="700.000000pt" height="700.000000pt" viewBox="0 0 700.000000 700.000000"
 preserveAspectRatio="xMidYMid meet">
<metadata>
Created by potrace 1.11, written by Peter Selinger 2001-2013
</metadata>
<g transform="translate(0.000000,700.000000) scale(0.100000,-0.100000)"
fill="#000000" stroke="none">
<path d="M0 3500 l0 -3500 3500 0 3500 0 0 3500 0 3500 -3500 0 -3500 0 0
-3500z m2921 1672 c39 -44 39 -90 0 -134 l-29 -33 -136 -3 -136 -4 72 -139 73
-139 723 0 c397 0 722 3 722 6 0 3 -41 87 -92 185 -86 168 -91 181 -82 215 5
22 21 46 37 58 28 20 38 21 405 21 l377 0 56 -26 c66 -31 120 -84 151 -148 18
-36 23 -63 23 -126 0 -98 -29 -160 -101 -224 -60 -53 -122 -71 -242 -71 -90 0
-95 1 -123 29 -38 38 -40 97 -5 138 22 25 31 28 117 33 52 3 104 11 115 17 52
30 54 117 4 155 -23 17 -45 18 -287 16 l-262 -3 170 -330 c94 -181 174 -333
177 -337 4 -4 45 6 92 21 243 82 540 82 782 1 428 -144 738 -494 836 -944 22
-102 24 -368 3 -471 -65 -329 -261 -625 -537 -808 -219 -145 -427 -208 -694
-209 -590 -1 -1098 412 -1221 992 -29 136 -31 353 -6 482 33 168 99 327 195
471 59 91 196 234 285 298 40 29 76 56 80 60 5 4 -13 48 -41 99 l-49 91 -420
-648 -419 -648 -62 -205 c-34 -113 -62 -208 -62 -212 0 -5 22 -8 50 -8 27 0
61 -5 75 -12 29 -13 55 -55 55 -88 0 -29 -27 -77 -49 -90 -12 -6 -107 -10
-236 -10 l-217 0 -29 29 c-38 38 -40 97 -6 137 20 23 34 28 84 32 56 4 61 6
67 31 3 14 28 97 55 184 l49 157 -147 0 -147 0 -12 -86 c-35 -242 -155 -483
-332 -668 -186 -195 -399 -313 -663 -367 -125 -25 -330 -28 -457 -5 -523 94
-929 508 -1016 1035 -20 123 -15 332 10 449 81 374 323 689 659 858 202 102
371 139 607 131 181 -6 298 -31 454 -98 53 -22 98 -40 100 -38 1 2 52 82 113
178 l111 173 -96 189 -97 189 -103 0 c-112 0 -159 13 -186 51 -21 30 -21 78 0
108 35 49 53 51 432 48 l354 -2 29 -33z"/>
<path d="M2870 4516 c0 -18 584 -1145 590 -1139 7 7 711 1093 734 1131 6 9
-129 12 -658 12 -366 0 -666 -2 -666 -4z"/>
<path d="M2612 4286 l-81 -125 108 -108 c199 -199 316 -420 360 -683 l18 -105
126 -3 c91 -2 127 1 127 9 0 10 -387 778 -523 1037 l-54 103 -81 -125z"/>
<path d="M1583 4196 c-217 -41 -417 -149 -566 -305 -132 -138 -216 -287 -264
-469 -23 -84 -26 -118 -27 -252 -1 -200 25 -314 111 -481 58 -114 97 -168 190
-262 132 -133 299 -230 480 -279 112 -29 340 -36 454 -13 276 55 519 214 670
437 84 123 151 295 174 446 l7 42 -525 0 c-304 0 -536 4 -550 9 -41 16 -67 51
-67 92 0 36 96 191 508 824 l72 110 -63 29 c-114 52 -237 78 -392 82 -91 2
-165 -1 -212 -10z"/>
<path d="M4970 4200 c-81 -14 -212 -52 -216 -64 -2 -6 104 -220 236 -476 165
-321 240 -475 240 -497 0 -22 -9 -43 -29 -65 -38 -43 -98 -46 -135 -8 -13 14
-128 228 -255 475 -127 248 -235 456 -240 464 -7 11 -16 8 -46 -12 -74 -50
-165 -139 -226 -219 -160 -212 -237 -483 -209 -737 41 -374 255 -677 594 -841
146 -71 231 -91 411 -97 124 -4 166 -1 245 15 194 40 359 126 505 264 151 143
249 307 302 506 23 85 26 117 26 257 0 140 -3 172 -26 256 -107 403 -431 703
-836 774 -87 16 -264 18 -341 5z"/>
<path d="M2192 3636 c-122 -190 -225 -352 -228 -360 -6 -14 37 -16 421 -16
l427 0 -7 53 c-20 145 -82 305 -172 439 -45 69 -192 228 -210 228 -5 0 -109
-155 -231 -344z"/>
</g>
</svg>
